# xmcd CD database file
#
# Track frame offsets:
#	150
#	22844
#	47479
#	66206
#	90567
#	118122
#	144021
#	173880
#	197522
#	228121
#
# Disc length: 3417 seconds
#
# Revision: 0
# Processed by: cddbd v1.5.2PL0 Copyright (c) Steve Scherf et al.
# Submitted via: CDex 1.70beta2
#
DISCID=720d570a
DTITLE=Satoru Shionoya Trio - EARTHEORY
DYEAR=2007
DGENRE=Jazz
TTITLE0=Morning Bliss
TTITLE1=Eartheory
TTITLE2=In A Driving Rain
TTITLE3=So Danco Samba(Jazz Samba)
TTITLE4=Deep Affection
TTITLE5=Beat-n-Feat
TTITLE6=Ladies In Mercedes
TTITLE7=Hard Cookie Dance
TTITLE8=Spanish Waltz
TTITLE9=Ro Be Stars
EXTD=
EXTT0=
EXTT1=
EXTT2=
EXTT3=
EXTT4=
EXTT5=
EXTT6=
EXTT7=
EXTT8=
EXTT9=
PLAYORDER=
